<svg width="229.92" height="28.2" viewBox="0 0 229.92 28.2" xmlns="http://www.w3.org/2000/svg"><g id="svgGroup" stroke-linecap="round" fill-rule="evenodd" font-size="9pt" stroke="#000" stroke-width="0.25mm" fill="#ffffff" style="stroke:#000;stroke-width:0.25mm;fill:#ffffff"><path d="M 183.48 5.8 L 188.04 5.8 L 188.04 27.84 L 183.48 27.84 L 183.48 25.24 A 7.185 7.185 0 0 1 181.239 27.095 A 8.677 8.677 0 0 1 180.66 27.38 Q 178.92 28.16 176.96 28.16 A 10.732 10.732 0 0 1 174.206 27.818 A 9.106 9.106 0 0 1 172.3 27.08 Q 170.24 26 169.06 23.88 A 9.036 9.036 0 0 1 168.106 21.217 Q 167.88 20.072 167.88 18.76 L 167.88 5.8 L 172.4 5.8 L 172.4 18.08 A 9.494 9.494 0 0 0 172.552 19.835 Q 172.738 20.824 173.153 21.6 A 4.774 4.774 0 0 0 173.88 22.62 A 4.88 4.88 0 0 0 176.636 24.089 A 7.067 7.067 0 0 0 177.92 24.2 A 6.693 6.693 0 0 0 179.682 23.98 A 4.867 4.867 0 0 0 181.98 22.62 A 5.106 5.106 0 0 0 183.15 20.552 Q 183.392 19.756 183.457 18.796 A 10.712 10.712 0 0 0 183.48 18.08 L 183.48 5.8 Z M 102.12 18.52 L 85.28 18.52 A 7.033 7.033 0 0 0 85.747 20.614 A 5.759 5.759 0 0 0 87.24 22.76 Q 89 24.36 91.56 24.36 Q 95.24 24.36 96.76 21.28 L 101.68 21.28 Q 100.68 24.32 98.06 26.26 A 9.714 9.714 0 0 1 93.971 27.991 A 13.337 13.337 0 0 1 91.56 28.2 Q 88.4 28.2 85.9 26.78 Q 83.4 25.36 81.98 22.78 A 11.385 11.385 0 0 1 80.699 18.845 A 14.623 14.623 0 0 1 80.56 16.8 A 14.199 14.199 0 0 1 80.9 13.628 A 11.234 11.234 0 0 1 81.94 10.82 Q 83.32 8.24 85.82 6.84 A 10.991 10.991 0 0 1 89.974 5.529 A 13.813 13.813 0 0 1 91.56 5.44 A 12.218 12.218 0 0 1 94.812 5.858 A 10.37 10.37 0 0 1 97.12 6.8 Q 99.56 8.16 100.92 10.62 A 10.866 10.866 0 0 1 102.172 14.539 A 13.726 13.726 0 0 1 102.28 16.28 Q 102.28 17.52 102.12 18.52 Z M 45.08 0.04 L 50.12 0.04 L 40.92 17.76 L 40.92 27.84 L 36.36 27.84 L 36.36 17.76 L 27.12 0.04 L 32.2 0.04 L 38.64 13.68 L 45.08 0.04 Z M 109.04 5.8 L 115.28 23.76 L 121.52 5.8 L 126.36 5.8 L 117.96 27.84 L 112.52 27.84 L 104.16 5.8 L 109.04 5.8 Z M 20.4 27.84 L 18.4 22.16 L 6.76 22.16 L 4.76 27.84 L 0 27.84 L 9.96 0 L 15.24 0 L 25.2 27.84 L 20.4 27.84 Z M 158.96 27.84 L 156.96 22.16 L 145.32 22.16 L 143.32 27.84 L 138.56 27.84 L 148.52 0 L 153.8 0 L 163.76 27.84 L 158.96 27.84 Z M 62.8 27.84 L 53.72 27.84 L 53.72 0.04 L 62.8 0.04 A 19.683 19.683 0 0 1 66.721 0.414 A 15.077 15.077 0 0 1 70.58 1.74 Q 73.92 3.44 75.74 6.62 A 13.677 13.677 0 0 1 77.382 11.494 A 17.675 17.675 0 0 1 77.56 14.04 A 16.632 16.632 0 0 1 77.16 17.769 A 12.878 12.878 0 0 1 75.74 21.4 Q 73.92 24.52 70.58 26.18 Q 67.24 27.84 62.8 27.84 Z M 204.72 9.52 L 199.36 9.52 L 199.36 21.72 A 4.175 4.175 0 0 0 199.405 22.358 Q 199.522 23.111 199.94 23.5 Q 200.52 24.04 201.92 24.04 L 204.72 24.04 L 204.72 27.84 L 201.12 27.84 Q 198.04 27.84 196.4 26.4 A 4.346 4.346 0 0 1 195.203 24.601 Q 194.94 23.89 194.833 23.007 A 10.732 10.732 0 0 1 194.76 21.72 L 194.76 9.52 L 192.16 9.52 L 192.16 5.8 L 194.76 5.8 L 194.76 0.32 L 199.36 0.32 L 199.36 5.8 L 204.72 5.8 L 204.72 9.52 Z M 214.686 27.603 A 11.799 11.799 0 0 0 218.48 28.2 A 13.941 13.941 0 0 0 218.702 28.198 A 11.883 11.883 0 0 0 224.26 26.78 Q 226.88 25.36 228.4 22.76 A 10.735 10.735 0 0 0 229.465 20.248 A 12.64 12.64 0 0 0 229.92 16.8 A 14.143 14.143 0 0 0 229.839 15.267 A 11.325 11.325 0 0 0 228.44 10.84 Q 226.96 8.24 224.4 6.84 Q 221.84 5.44 218.68 5.44 Q 215.52 5.44 212.96 6.84 Q 210.4 8.24 208.92 10.84 A 10.908 10.908 0 0 0 207.858 13.444 A 13.012 13.012 0 0 0 207.44 16.8 A 14.497 14.497 0 0 0 207.567 18.746 A 11.308 11.308 0 0 0 208.88 22.78 Q 210.32 25.36 212.84 26.78 A 10.746 10.746 0 0 0 214.686 27.603 Z M 62.8 3.76 L 58.28 3.76 L 58.28 24.12 L 62.8 24.12 A 14.419 14.419 0 0 0 65.757 23.836 Q 67.535 23.463 68.892 22.601 A 7.859 7.859 0 0 0 70.28 21.48 Q 72.713 19.009 72.869 14.646 A 16.975 16.975 0 0 0 72.88 14.04 A 14.487 14.487 0 0 0 72.573 10.964 Q 72.143 8.985 71.11 7.497 A 8.401 8.401 0 0 0 70.28 6.48 A 8.38 8.38 0 0 0 66.389 4.209 Q 65.084 3.844 63.53 3.776 A 16.605 16.605 0 0 0 62.8 3.76 Z M 218.48 24.24 Q 220.24 24.24 221.78 23.4 A 6.217 6.217 0 0 0 223.933 21.433 A 7.69 7.69 0 0 0 224.28 20.88 A 7.038 7.038 0 0 0 225.056 18.762 Q 225.24 17.85 225.24 16.8 Q 225.24 14.6 224.467 13.022 A 6.282 6.282 0 0 0 224.32 12.74 Q 223.4 11.08 221.88 10.24 Q 220.36 9.4 218.6 9.4 Q 216.84 9.4 215.34 10.24 A 5.862 5.862 0 0 0 213.22 12.289 A 7.228 7.228 0 0 0 212.96 12.74 A 7.208 7.208 0 0 0 212.28 14.681 Q 212.105 15.534 212.083 16.517 A 12.736 12.736 0 0 0 212.08 16.8 Q 212.08 20.36 213.9 22.3 A 5.976 5.976 0 0 0 218.223 24.236 A 7.67 7.67 0 0 0 218.48 24.24 Z M 8.04 18.44 L 17.12 18.44 L 12.6 5.52 L 8.04 18.44 Z M 146.6 18.44 L 155.68 18.44 L 151.16 5.52 L 146.6 18.44 Z M 85.32 14.84 L 97.52 14.84 A 5.933 5.933 0 0 0 97.186 12.908 A 4.991 4.991 0 0 0 95.72 10.8 A 6.21 6.21 0 0 0 92.229 9.325 A 8.211 8.211 0 0 0 91.36 9.28 Q 89 9.28 87.32 10.78 A 5.943 5.943 0 0 0 85.535 13.734 A 8.045 8.045 0 0 0 85.32 14.84 Z" vector-effect="non-scaling-stroke"/></g></svg>